<svg width="22" height="25" viewBox="0 0 22 25" fill="#fff" xmlns="http://www.w3.org/2000/svg">
<g clip-path="url(#clip0_13_5)">
<path d="M4.71429 1.5625V3.125H2.35714C1.0558 3.125 0 4.1748 0 5.46875V7.8125H22V5.46875C22 4.1748 20.9442 3.125 19.6429 3.125H17.2857V1.5625C17.2857 0.698242 16.5835 0 15.7143 0C14.8451 0 14.1429 0.698242 14.1429 1.5625V3.125H7.85714V1.5625C7.85714 0.698242 7.15491 0 6.28571 0C5.41652 0 4.71429 0.698242 4.71429 1.5625ZM22 9.375H0V22.6562C0 23.9502 1.0558 25 2.35714 25H19.6429C20.9442 25 22 23.9502 22 22.6562V9.375Z" fill="white"/>
</g>
<defs>
<clipPath id="clip0_13_5">
<rect width="22" height="25" fill="white"/>
</clipPath>
</defs>
</svg>
