<svg width="26" height="24" viewBox="0 0 26 24" fill="#fff" xmlns="http://www.w3.org/2000/svg">
<path d="M0 3.875C0 2.08242 1.45742 0.625 3.25 0.625H22.75C24.5426 0.625 26 2.08242 26 3.875V13.2391C25.1367 12.4672 23.9992 12 22.75 12H3.25C2.00078 12 0.863281 12.4672 0 13.2391V3.875ZM3.25 13.625H22.75C24.5426 13.625 26 15.0824 26 16.875V20.125C26 21.9176 24.5426 23.375 22.75 23.375H3.25C1.45742 23.375 0 21.9176 0 20.125V16.875C0 15.0824 1.45742 13.625 3.25 13.625ZM16.25 20.125C17.1488 20.125 17.875 19.3988 17.875 18.5C17.875 17.6012 17.1488 16.875 16.25 16.875C15.3512 16.875 14.625 17.6012 14.625 18.5C14.625 19.3988 15.3512 20.125 16.25 20.125ZM22.75 18.5C22.75 17.6012 22.0238 16.875 21.125 16.875C20.2262 16.875 19.5 17.6012 19.5 18.5C19.5 19.3988 20.2262 20.125 21.125 20.125C22.0238 20.125 22.75 19.3988 22.75 18.5Z" fill="white"/>
</svg>
